<mxfile host="app.diagrams.net" modified="2021-09-16T17:50:17.009Z" agent="5.0 (Windows NT 10.0; Win64; x64) AppleWebKit/537.36 (KHTML, like Gecko) Chrome/93.0.4577.82 Safari/537.36" etag="g0g3PbNqWpvivB8xUJPG" version="15.2.7" type="github">
  <diagram id="CZdt3x7zIuzdPkFyQ22f" name="Page-1">
    <mxGraphModel dx="3084" dy="2437" grid="1" gridSize="10" guides="1" tooltips="1" connect="1" arrows="1" fold="1" page="1" pageScale="1" pageWidth="850" pageHeight="1100" math="0" shadow="0">
      <root>
        <mxCell id="0" />
        <mxCell id="1" parent="0" />
        <mxCell id="zdCaSSds6zG_SUBaGin_-180" value="" style="shape=table;startSize=0;container=1;collapsible=0;childLayout=tableLayout;fillColor=#D5E8D4;" vertex="1" parent="1">
          <mxGeometry x="-210" y="60" width="900" height="40" as="geometry" />
        </mxCell>
        <mxCell id="zdCaSSds6zG_SUBaGin_-181" value="" style="shape=partialRectangle;collapsible=0;dropTarget=0;pointerEvents=0;fillColor=none;top=0;left=0;bottom=0;right=0;points=[[0,0.5],[1,0.5]];portConstraint=eastwest;" vertex="1" parent="zdCaSSds6zG_SUBaGin_-180">
          <mxGeometry width="900" height="40" as="geometry" />
        </mxCell>
        <mxCell id="zdCaSSds6zG_SUBaGin_-182" value="" style="shape=partialRectangle;html=1;whiteSpace=wrap;connectable=0;overflow=hidden;fillColor=none;top=0;left=0;bottom=0;right=0;pointerEvents=1;" vertex="1" parent="zdCaSSds6zG_SUBaGin_-181">
          <mxGeometry width="45" height="40" as="geometry" />
        </mxCell>
        <mxCell id="zdCaSSds6zG_SUBaGin_-183" value="" style="shape=partialRectangle;html=1;whiteSpace=wrap;connectable=0;overflow=hidden;fillColor=none;top=0;left=0;bottom=0;right=0;pointerEvents=1;" vertex="1" parent="zdCaSSds6zG_SUBaGin_-181">
          <mxGeometry x="45" width="45" height="40" as="geometry" />
        </mxCell>
        <mxCell id="zdCaSSds6zG_SUBaGin_-184" value="" style="shape=partialRectangle;html=1;whiteSpace=wrap;connectable=0;overflow=hidden;fillColor=none;top=0;left=0;bottom=0;right=0;pointerEvents=1;" vertex="1" parent="zdCaSSds6zG_SUBaGin_-181">
          <mxGeometry x="90" width="45" height="40" as="geometry" />
        </mxCell>
        <mxCell id="zdCaSSds6zG_SUBaGin_-185" value="" style="shape=partialRectangle;html=1;whiteSpace=wrap;connectable=0;overflow=hidden;fillColor=none;top=0;left=0;bottom=0;right=0;pointerEvents=1;" vertex="1" parent="zdCaSSds6zG_SUBaGin_-181">
          <mxGeometry x="135" width="45" height="40" as="geometry" />
        </mxCell>
        <mxCell id="zdCaSSds6zG_SUBaGin_-186" value="" style="shape=partialRectangle;html=1;whiteSpace=wrap;connectable=0;overflow=hidden;fillColor=none;top=0;left=0;bottom=0;right=0;pointerEvents=1;" vertex="1" parent="zdCaSSds6zG_SUBaGin_-181">
          <mxGeometry x="180" width="45" height="40" as="geometry" />
        </mxCell>
        <mxCell id="zdCaSSds6zG_SUBaGin_-187" value="" style="shape=partialRectangle;html=1;whiteSpace=wrap;connectable=0;overflow=hidden;fillColor=none;top=0;left=0;bottom=0;right=0;pointerEvents=1;" vertex="1" parent="zdCaSSds6zG_SUBaGin_-181">
          <mxGeometry x="225" width="45" height="40" as="geometry" />
        </mxCell>
        <mxCell id="zdCaSSds6zG_SUBaGin_-188" value="" style="shape=partialRectangle;html=1;whiteSpace=wrap;connectable=0;overflow=hidden;fillColor=none;top=0;left=0;bottom=0;right=0;pointerEvents=1;" vertex="1" parent="zdCaSSds6zG_SUBaGin_-181">
          <mxGeometry x="270" width="45" height="40" as="geometry" />
        </mxCell>
        <mxCell id="zdCaSSds6zG_SUBaGin_-189" value="" style="shape=partialRectangle;html=1;whiteSpace=wrap;connectable=0;overflow=hidden;fillColor=none;top=0;left=0;bottom=0;right=0;pointerEvents=1;" vertex="1" parent="zdCaSSds6zG_SUBaGin_-181">
          <mxGeometry x="315" width="45" height="40" as="geometry" />
        </mxCell>
        <mxCell id="zdCaSSds6zG_SUBaGin_-190" value="" style="shape=partialRectangle;html=1;whiteSpace=wrap;connectable=0;overflow=hidden;fillColor=none;top=0;left=0;bottom=0;right=0;pointerEvents=1;" vertex="1" parent="zdCaSSds6zG_SUBaGin_-181">
          <mxGeometry x="360" width="45" height="40" as="geometry" />
        </mxCell>
        <mxCell id="zdCaSSds6zG_SUBaGin_-191" value="" style="shape=partialRectangle;html=1;whiteSpace=wrap;connectable=0;overflow=hidden;fillColor=none;top=0;left=0;bottom=0;right=0;pointerEvents=1;" vertex="1" parent="zdCaSSds6zG_SUBaGin_-181">
          <mxGeometry x="405" width="45" height="40" as="geometry" />
        </mxCell>
        <mxCell id="zdCaSSds6zG_SUBaGin_-192" value="" style="shape=partialRectangle;html=1;whiteSpace=wrap;connectable=0;overflow=hidden;fillColor=none;top=0;left=0;bottom=0;right=0;pointerEvents=1;" vertex="1" parent="zdCaSSds6zG_SUBaGin_-181">
          <mxGeometry x="450" width="45" height="40" as="geometry" />
        </mxCell>
        <mxCell id="zdCaSSds6zG_SUBaGin_-193" value="" style="shape=partialRectangle;html=1;whiteSpace=wrap;connectable=0;overflow=hidden;fillColor=none;top=0;left=0;bottom=0;right=0;pointerEvents=1;" vertex="1" parent="zdCaSSds6zG_SUBaGin_-181">
          <mxGeometry x="495" width="45" height="40" as="geometry" />
        </mxCell>
        <mxCell id="zdCaSSds6zG_SUBaGin_-194" value="" style="shape=partialRectangle;html=1;whiteSpace=wrap;connectable=0;overflow=hidden;fillColor=none;top=0;left=0;bottom=0;right=0;pointerEvents=1;" vertex="1" parent="zdCaSSds6zG_SUBaGin_-181">
          <mxGeometry x="540" width="45" height="40" as="geometry" />
        </mxCell>
        <mxCell id="zdCaSSds6zG_SUBaGin_-195" value="" style="shape=partialRectangle;html=1;whiteSpace=wrap;connectable=0;overflow=hidden;fillColor=none;top=0;left=0;bottom=0;right=0;pointerEvents=1;" vertex="1" parent="zdCaSSds6zG_SUBaGin_-181">
          <mxGeometry x="585" width="45" height="40" as="geometry" />
        </mxCell>
        <mxCell id="zdCaSSds6zG_SUBaGin_-196" value="" style="shape=partialRectangle;html=1;whiteSpace=wrap;connectable=0;overflow=hidden;fillColor=none;top=0;left=0;bottom=0;right=0;pointerEvents=1;" vertex="1" parent="zdCaSSds6zG_SUBaGin_-181">
          <mxGeometry x="630" width="45" height="40" as="geometry" />
        </mxCell>
        <mxCell id="zdCaSSds6zG_SUBaGin_-197" value="" style="shape=partialRectangle;html=1;whiteSpace=wrap;connectable=0;overflow=hidden;fillColor=none;top=0;left=0;bottom=0;right=0;pointerEvents=1;" vertex="1" parent="zdCaSSds6zG_SUBaGin_-181">
          <mxGeometry x="675" width="45" height="40" as="geometry" />
        </mxCell>
        <mxCell id="zdCaSSds6zG_SUBaGin_-198" value="" style="shape=partialRectangle;html=1;whiteSpace=wrap;connectable=0;overflow=hidden;fillColor=none;top=0;left=0;bottom=0;right=0;pointerEvents=1;" vertex="1" parent="zdCaSSds6zG_SUBaGin_-181">
          <mxGeometry x="720" width="45" height="40" as="geometry" />
        </mxCell>
        <mxCell id="zdCaSSds6zG_SUBaGin_-199" value="" style="shape=partialRectangle;html=1;whiteSpace=wrap;connectable=0;overflow=hidden;fillColor=none;top=0;left=0;bottom=0;right=0;pointerEvents=1;" vertex="1" parent="zdCaSSds6zG_SUBaGin_-181">
          <mxGeometry x="765" width="45" height="40" as="geometry" />
        </mxCell>
        <mxCell id="zdCaSSds6zG_SUBaGin_-200" value="" style="shape=partialRectangle;html=1;whiteSpace=wrap;connectable=0;overflow=hidden;fillColor=none;top=0;left=0;bottom=0;right=0;pointerEvents=1;" vertex="1" parent="zdCaSSds6zG_SUBaGin_-181">
          <mxGeometry x="810" width="45" height="40" as="geometry" />
        </mxCell>
        <mxCell id="zdCaSSds6zG_SUBaGin_-201" value="" style="shape=partialRectangle;html=1;whiteSpace=wrap;connectable=0;overflow=hidden;fillColor=none;top=0;left=0;bottom=0;right=0;pointerEvents=1;" vertex="1" parent="zdCaSSds6zG_SUBaGin_-181">
          <mxGeometry x="855" width="45" height="40" as="geometry" />
        </mxCell>
        <mxCell id="zdCaSSds6zG_SUBaGin_-202" value="Input 1D Array" style="text;html=1;resizable=0;autosize=1;align=center;verticalAlign=middle;points=[];fillColor=none;strokeColor=none;rounded=0;fontSize=24;" vertex="1" parent="1">
          <mxGeometry x="130" y="-50" width="170" height="30" as="geometry" />
        </mxCell>
        <mxCell id="zdCaSSds6zG_SUBaGin_-203" value="" style="endArrow=classic;html=1;fontSize=24;" edge="1" parent="1">
          <mxGeometry width="50" height="50" relative="1" as="geometry">
            <mxPoint x="-310" y="10" as="sourcePoint" />
            <mxPoint x="-380" y="10" as="targetPoint" />
          </mxGeometry>
        </mxCell>
        <mxCell id="zdCaSSds6zG_SUBaGin_-204" value="2 Kernels&lt;br&gt;are applied" style="text;html=1;resizable=0;autosize=1;align=center;verticalAlign=middle;points=[];fillColor=none;strokeColor=none;rounded=0;fontSize=24;" vertex="1" parent="1">
          <mxGeometry x="-490" y="-20" width="130" height="60" as="geometry" />
        </mxCell>
        <mxCell id="zdCaSSds6zG_SUBaGin_-205" value="" style="shape=table;startSize=0;container=1;collapsible=0;childLayout=tableLayout;fillColor=#FF8000;" vertex="1" parent="1">
          <mxGeometry x="-300" y="-15" width="40" height="40" as="geometry" />
        </mxCell>
        <mxCell id="zdCaSSds6zG_SUBaGin_-206" value="" style="shape=partialRectangle;collapsible=0;dropTarget=0;pointerEvents=0;fillColor=none;top=0;left=0;bottom=0;right=0;points=[[0,0.5],[1,0.5]];portConstraint=eastwest;" vertex="1" parent="zdCaSSds6zG_SUBaGin_-205">
          <mxGeometry width="40" height="40" as="geometry" />
        </mxCell>
        <mxCell id="zdCaSSds6zG_SUBaGin_-207" value="" style="shape=partialRectangle;html=1;whiteSpace=wrap;connectable=0;overflow=hidden;fillColor=none;top=0;left=0;bottom=0;right=0;pointerEvents=1;" vertex="1" parent="zdCaSSds6zG_SUBaGin_-206">
          <mxGeometry width="40" height="40" as="geometry" />
        </mxCell>
        <mxCell id="zdCaSSds6zG_SUBaGin_-208" value="" style="shape=table;startSize=0;container=1;collapsible=0;childLayout=tableLayout;fillColor=#FF8000;" vertex="1" parent="1">
          <mxGeometry x="-210" y="60" width="45" height="40" as="geometry" />
        </mxCell>
        <mxCell id="zdCaSSds6zG_SUBaGin_-209" value="" style="shape=partialRectangle;collapsible=0;dropTarget=0;pointerEvents=0;fillColor=none;top=0;left=0;bottom=0;right=0;points=[[0,0.5],[1,0.5]];portConstraint=eastwest;" vertex="1" parent="zdCaSSds6zG_SUBaGin_-208">
          <mxGeometry width="45" height="40" as="geometry" />
        </mxCell>
        <mxCell id="zdCaSSds6zG_SUBaGin_-210" value="" style="shape=partialRectangle;html=1;whiteSpace=wrap;connectable=0;overflow=hidden;fillColor=none;top=0;left=0;bottom=0;right=0;pointerEvents=1;" vertex="1" parent="zdCaSSds6zG_SUBaGin_-209">
          <mxGeometry width="45" height="40" as="geometry" />
        </mxCell>
        <mxCell id="zdCaSSds6zG_SUBaGin_-211" value="" style="shape=table;startSize=0;container=1;collapsible=0;childLayout=tableLayout;fillColor=#FF8000;" vertex="1" parent="1">
          <mxGeometry x="-290" width="40" height="40" as="geometry" />
        </mxCell>
        <mxCell id="zdCaSSds6zG_SUBaGin_-212" value="" style="shape=partialRectangle;collapsible=0;dropTarget=0;pointerEvents=0;fillColor=none;top=0;left=0;bottom=0;right=0;points=[[0,0.5],[1,0.5]];portConstraint=eastwest;" vertex="1" parent="zdCaSSds6zG_SUBaGin_-211">
          <mxGeometry width="40" height="40" as="geometry" />
        </mxCell>
        <mxCell id="zdCaSSds6zG_SUBaGin_-213" value="" style="shape=partialRectangle;html=1;whiteSpace=wrap;connectable=0;overflow=hidden;fillColor=none;top=0;left=0;bottom=0;right=0;pointerEvents=1;" vertex="1" parent="zdCaSSds6zG_SUBaGin_-212">
          <mxGeometry width="40" height="40" as="geometry" />
        </mxCell>
        <mxCell id="zdCaSSds6zG_SUBaGin_-214" value="" style="shape=table;startSize=0;container=1;collapsible=0;childLayout=tableLayout;fillColor=#D5E8D4;" vertex="1" parent="1">
          <mxGeometry x="-210" y="120" width="900" height="40" as="geometry" />
        </mxCell>
        <mxCell id="zdCaSSds6zG_SUBaGin_-215" value="" style="shape=partialRectangle;collapsible=0;dropTarget=0;pointerEvents=0;fillColor=none;top=0;left=0;bottom=0;right=0;points=[[0,0.5],[1,0.5]];portConstraint=eastwest;" vertex="1" parent="zdCaSSds6zG_SUBaGin_-214">
          <mxGeometry width="900" height="40" as="geometry" />
        </mxCell>
        <mxCell id="zdCaSSds6zG_SUBaGin_-216" value="" style="shape=partialRectangle;html=1;whiteSpace=wrap;connectable=0;overflow=hidden;fillColor=none;top=0;left=0;bottom=0;right=0;pointerEvents=1;" vertex="1" parent="zdCaSSds6zG_SUBaGin_-215">
          <mxGeometry width="45" height="40" as="geometry" />
        </mxCell>
        <mxCell id="zdCaSSds6zG_SUBaGin_-217" value="" style="shape=partialRectangle;html=1;whiteSpace=wrap;connectable=0;overflow=hidden;fillColor=none;top=0;left=0;bottom=0;right=0;pointerEvents=1;" vertex="1" parent="zdCaSSds6zG_SUBaGin_-215">
          <mxGeometry x="45" width="45" height="40" as="geometry" />
        </mxCell>
        <mxCell id="zdCaSSds6zG_SUBaGin_-218" value="" style="shape=partialRectangle;html=1;whiteSpace=wrap;connectable=0;overflow=hidden;fillColor=none;top=0;left=0;bottom=0;right=0;pointerEvents=1;" vertex="1" parent="zdCaSSds6zG_SUBaGin_-215">
          <mxGeometry x="90" width="45" height="40" as="geometry" />
        </mxCell>
        <mxCell id="zdCaSSds6zG_SUBaGin_-219" value="" style="shape=partialRectangle;html=1;whiteSpace=wrap;connectable=0;overflow=hidden;fillColor=none;top=0;left=0;bottom=0;right=0;pointerEvents=1;" vertex="1" parent="zdCaSSds6zG_SUBaGin_-215">
          <mxGeometry x="135" width="45" height="40" as="geometry" />
        </mxCell>
        <mxCell id="zdCaSSds6zG_SUBaGin_-220" value="" style="shape=partialRectangle;html=1;whiteSpace=wrap;connectable=0;overflow=hidden;fillColor=none;top=0;left=0;bottom=0;right=0;pointerEvents=1;" vertex="1" parent="zdCaSSds6zG_SUBaGin_-215">
          <mxGeometry x="180" width="45" height="40" as="geometry" />
        </mxCell>
        <mxCell id="zdCaSSds6zG_SUBaGin_-221" value="" style="shape=partialRectangle;html=1;whiteSpace=wrap;connectable=0;overflow=hidden;fillColor=none;top=0;left=0;bottom=0;right=0;pointerEvents=1;" vertex="1" parent="zdCaSSds6zG_SUBaGin_-215">
          <mxGeometry x="225" width="45" height="40" as="geometry" />
        </mxCell>
        <mxCell id="zdCaSSds6zG_SUBaGin_-222" value="" style="shape=partialRectangle;html=1;whiteSpace=wrap;connectable=0;overflow=hidden;fillColor=none;top=0;left=0;bottom=0;right=0;pointerEvents=1;" vertex="1" parent="zdCaSSds6zG_SUBaGin_-215">
          <mxGeometry x="270" width="45" height="40" as="geometry" />
        </mxCell>
        <mxCell id="zdCaSSds6zG_SUBaGin_-223" value="" style="shape=partialRectangle;html=1;whiteSpace=wrap;connectable=0;overflow=hidden;fillColor=none;top=0;left=0;bottom=0;right=0;pointerEvents=1;" vertex="1" parent="zdCaSSds6zG_SUBaGin_-215">
          <mxGeometry x="315" width="45" height="40" as="geometry" />
        </mxCell>
        <mxCell id="zdCaSSds6zG_SUBaGin_-224" value="" style="shape=partialRectangle;html=1;whiteSpace=wrap;connectable=0;overflow=hidden;fillColor=none;top=0;left=0;bottom=0;right=0;pointerEvents=1;" vertex="1" parent="zdCaSSds6zG_SUBaGin_-215">
          <mxGeometry x="360" width="45" height="40" as="geometry" />
        </mxCell>
        <mxCell id="zdCaSSds6zG_SUBaGin_-225" value="" style="shape=partialRectangle;html=1;whiteSpace=wrap;connectable=0;overflow=hidden;fillColor=none;top=0;left=0;bottom=0;right=0;pointerEvents=1;" vertex="1" parent="zdCaSSds6zG_SUBaGin_-215">
          <mxGeometry x="405" width="45" height="40" as="geometry" />
        </mxCell>
        <mxCell id="zdCaSSds6zG_SUBaGin_-226" value="" style="shape=partialRectangle;html=1;whiteSpace=wrap;connectable=0;overflow=hidden;fillColor=none;top=0;left=0;bottom=0;right=0;pointerEvents=1;" vertex="1" parent="zdCaSSds6zG_SUBaGin_-215">
          <mxGeometry x="450" width="45" height="40" as="geometry" />
        </mxCell>
        <mxCell id="zdCaSSds6zG_SUBaGin_-227" value="" style="shape=partialRectangle;html=1;whiteSpace=wrap;connectable=0;overflow=hidden;fillColor=none;top=0;left=0;bottom=0;right=0;pointerEvents=1;" vertex="1" parent="zdCaSSds6zG_SUBaGin_-215">
          <mxGeometry x="495" width="45" height="40" as="geometry" />
        </mxCell>
        <mxCell id="zdCaSSds6zG_SUBaGin_-228" value="" style="shape=partialRectangle;html=1;whiteSpace=wrap;connectable=0;overflow=hidden;fillColor=none;top=0;left=0;bottom=0;right=0;pointerEvents=1;" vertex="1" parent="zdCaSSds6zG_SUBaGin_-215">
          <mxGeometry x="540" width="45" height="40" as="geometry" />
        </mxCell>
        <mxCell id="zdCaSSds6zG_SUBaGin_-229" value="" style="shape=partialRectangle;html=1;whiteSpace=wrap;connectable=0;overflow=hidden;fillColor=none;top=0;left=0;bottom=0;right=0;pointerEvents=1;" vertex="1" parent="zdCaSSds6zG_SUBaGin_-215">
          <mxGeometry x="585" width="45" height="40" as="geometry" />
        </mxCell>
        <mxCell id="zdCaSSds6zG_SUBaGin_-230" value="" style="shape=partialRectangle;html=1;whiteSpace=wrap;connectable=0;overflow=hidden;fillColor=none;top=0;left=0;bottom=0;right=0;pointerEvents=1;" vertex="1" parent="zdCaSSds6zG_SUBaGin_-215">
          <mxGeometry x="630" width="45" height="40" as="geometry" />
        </mxCell>
        <mxCell id="zdCaSSds6zG_SUBaGin_-231" value="" style="shape=partialRectangle;html=1;whiteSpace=wrap;connectable=0;overflow=hidden;fillColor=none;top=0;left=0;bottom=0;right=0;pointerEvents=1;" vertex="1" parent="zdCaSSds6zG_SUBaGin_-215">
          <mxGeometry x="675" width="45" height="40" as="geometry" />
        </mxCell>
        <mxCell id="zdCaSSds6zG_SUBaGin_-232" value="" style="shape=partialRectangle;html=1;whiteSpace=wrap;connectable=0;overflow=hidden;fillColor=none;top=0;left=0;bottom=0;right=0;pointerEvents=1;" vertex="1" parent="zdCaSSds6zG_SUBaGin_-215">
          <mxGeometry x="720" width="45" height="40" as="geometry" />
        </mxCell>
        <mxCell id="zdCaSSds6zG_SUBaGin_-233" value="" style="shape=partialRectangle;html=1;whiteSpace=wrap;connectable=0;overflow=hidden;fillColor=none;top=0;left=0;bottom=0;right=0;pointerEvents=1;" vertex="1" parent="zdCaSSds6zG_SUBaGin_-215">
          <mxGeometry x="765" width="45" height="40" as="geometry" />
        </mxCell>
        <mxCell id="zdCaSSds6zG_SUBaGin_-234" value="" style="shape=partialRectangle;html=1;whiteSpace=wrap;connectable=0;overflow=hidden;fillColor=none;top=0;left=0;bottom=0;right=0;pointerEvents=1;" vertex="1" parent="zdCaSSds6zG_SUBaGin_-215">
          <mxGeometry x="810" width="45" height="40" as="geometry" />
        </mxCell>
        <mxCell id="zdCaSSds6zG_SUBaGin_-235" value="" style="shape=partialRectangle;html=1;whiteSpace=wrap;connectable=0;overflow=hidden;fillColor=none;top=0;left=0;bottom=0;right=0;pointerEvents=1;" vertex="1" parent="zdCaSSds6zG_SUBaGin_-215">
          <mxGeometry x="855" width="45" height="40" as="geometry" />
        </mxCell>
        <mxCell id="zdCaSSds6zG_SUBaGin_-236" value="" style="shape=table;startSize=0;container=1;collapsible=0;childLayout=tableLayout;fillColor=#FF8000;" vertex="1" parent="1">
          <mxGeometry x="-165" y="120" width="45" height="40" as="geometry" />
        </mxCell>
        <mxCell id="zdCaSSds6zG_SUBaGin_-237" value="" style="shape=partialRectangle;collapsible=0;dropTarget=0;pointerEvents=0;fillColor=none;top=0;left=0;bottom=0;right=0;points=[[0,0.5],[1,0.5]];portConstraint=eastwest;" vertex="1" parent="zdCaSSds6zG_SUBaGin_-236">
          <mxGeometry width="45" height="40" as="geometry" />
        </mxCell>
        <mxCell id="zdCaSSds6zG_SUBaGin_-238" value="" style="shape=partialRectangle;html=1;whiteSpace=wrap;connectable=0;overflow=hidden;fillColor=none;top=0;left=0;bottom=0;right=0;pointerEvents=1;" vertex="1" parent="zdCaSSds6zG_SUBaGin_-237">
          <mxGeometry width="45" height="40" as="geometry" />
        </mxCell>
        <mxCell id="zdCaSSds6zG_SUBaGin_-239" value="" style="shape=table;startSize=0;container=1;collapsible=0;childLayout=tableLayout;fillColor=#D5E8D4;" vertex="1" parent="1">
          <mxGeometry x="-230" y="-10" width="900" height="40" as="geometry" />
        </mxCell>
        <mxCell id="zdCaSSds6zG_SUBaGin_-240" value="" style="shape=partialRectangle;collapsible=0;dropTarget=0;pointerEvents=0;fillColor=none;top=0;left=0;bottom=0;right=0;points=[[0,0.5],[1,0.5]];portConstraint=eastwest;" vertex="1" parent="zdCaSSds6zG_SUBaGin_-239">
          <mxGeometry width="900" height="40" as="geometry" />
        </mxCell>
        <mxCell id="zdCaSSds6zG_SUBaGin_-241" value="" style="shape=partialRectangle;html=1;whiteSpace=wrap;connectable=0;overflow=hidden;fillColor=none;top=0;left=0;bottom=0;right=0;pointerEvents=1;" vertex="1" parent="zdCaSSds6zG_SUBaGin_-240">
          <mxGeometry width="45" height="40" as="geometry" />
        </mxCell>
        <mxCell id="zdCaSSds6zG_SUBaGin_-242" value="" style="shape=partialRectangle;html=1;whiteSpace=wrap;connectable=0;overflow=hidden;fillColor=none;top=0;left=0;bottom=0;right=0;pointerEvents=1;" vertex="1" parent="zdCaSSds6zG_SUBaGin_-240">
          <mxGeometry x="45" width="45" height="40" as="geometry" />
        </mxCell>
        <mxCell id="zdCaSSds6zG_SUBaGin_-243" value="" style="shape=partialRectangle;html=1;whiteSpace=wrap;connectable=0;overflow=hidden;fillColor=none;top=0;left=0;bottom=0;right=0;pointerEvents=1;" vertex="1" parent="zdCaSSds6zG_SUBaGin_-240">
          <mxGeometry x="90" width="45" height="40" as="geometry" />
        </mxCell>
        <mxCell id="zdCaSSds6zG_SUBaGin_-244" value="" style="shape=partialRectangle;html=1;whiteSpace=wrap;connectable=0;overflow=hidden;fillColor=none;top=0;left=0;bottom=0;right=0;pointerEvents=1;" vertex="1" parent="zdCaSSds6zG_SUBaGin_-240">
          <mxGeometry x="135" width="45" height="40" as="geometry" />
        </mxCell>
        <mxCell id="zdCaSSds6zG_SUBaGin_-245" value="" style="shape=partialRectangle;html=1;whiteSpace=wrap;connectable=0;overflow=hidden;fillColor=none;top=0;left=0;bottom=0;right=0;pointerEvents=1;" vertex="1" parent="zdCaSSds6zG_SUBaGin_-240">
          <mxGeometry x="180" width="45" height="40" as="geometry" />
        </mxCell>
        <mxCell id="zdCaSSds6zG_SUBaGin_-246" value="" style="shape=partialRectangle;html=1;whiteSpace=wrap;connectable=0;overflow=hidden;fillColor=none;top=0;left=0;bottom=0;right=0;pointerEvents=1;" vertex="1" parent="zdCaSSds6zG_SUBaGin_-240">
          <mxGeometry x="225" width="45" height="40" as="geometry" />
        </mxCell>
        <mxCell id="zdCaSSds6zG_SUBaGin_-247" value="" style="shape=partialRectangle;html=1;whiteSpace=wrap;connectable=0;overflow=hidden;fillColor=none;top=0;left=0;bottom=0;right=0;pointerEvents=1;" vertex="1" parent="zdCaSSds6zG_SUBaGin_-240">
          <mxGeometry x="270" width="45" height="40" as="geometry" />
        </mxCell>
        <mxCell id="zdCaSSds6zG_SUBaGin_-248" value="" style="shape=partialRectangle;html=1;whiteSpace=wrap;connectable=0;overflow=hidden;fillColor=none;top=0;left=0;bottom=0;right=0;pointerEvents=1;" vertex="1" parent="zdCaSSds6zG_SUBaGin_-240">
          <mxGeometry x="315" width="45" height="40" as="geometry" />
        </mxCell>
        <mxCell id="zdCaSSds6zG_SUBaGin_-249" value="" style="shape=partialRectangle;html=1;whiteSpace=wrap;connectable=0;overflow=hidden;fillColor=none;top=0;left=0;bottom=0;right=0;pointerEvents=1;" vertex="1" parent="zdCaSSds6zG_SUBaGin_-240">
          <mxGeometry x="360" width="45" height="40" as="geometry" />
        </mxCell>
        <mxCell id="zdCaSSds6zG_SUBaGin_-250" value="" style="shape=partialRectangle;html=1;whiteSpace=wrap;connectable=0;overflow=hidden;fillColor=none;top=0;left=0;bottom=0;right=0;pointerEvents=1;" vertex="1" parent="zdCaSSds6zG_SUBaGin_-240">
          <mxGeometry x="405" width="45" height="40" as="geometry" />
        </mxCell>
        <mxCell id="zdCaSSds6zG_SUBaGin_-251" value="" style="shape=partialRectangle;html=1;whiteSpace=wrap;connectable=0;overflow=hidden;fillColor=none;top=0;left=0;bottom=0;right=0;pointerEvents=1;" vertex="1" parent="zdCaSSds6zG_SUBaGin_-240">
          <mxGeometry x="450" width="45" height="40" as="geometry" />
        </mxCell>
        <mxCell id="zdCaSSds6zG_SUBaGin_-252" value="" style="shape=partialRectangle;html=1;whiteSpace=wrap;connectable=0;overflow=hidden;fillColor=none;top=0;left=0;bottom=0;right=0;pointerEvents=1;" vertex="1" parent="zdCaSSds6zG_SUBaGin_-240">
          <mxGeometry x="495" width="45" height="40" as="geometry" />
        </mxCell>
        <mxCell id="zdCaSSds6zG_SUBaGin_-253" value="" style="shape=partialRectangle;html=1;whiteSpace=wrap;connectable=0;overflow=hidden;fillColor=none;top=0;left=0;bottom=0;right=0;pointerEvents=1;" vertex="1" parent="zdCaSSds6zG_SUBaGin_-240">
          <mxGeometry x="540" width="45" height="40" as="geometry" />
        </mxCell>
        <mxCell id="zdCaSSds6zG_SUBaGin_-254" value="" style="shape=partialRectangle;html=1;whiteSpace=wrap;connectable=0;overflow=hidden;fillColor=none;top=0;left=0;bottom=0;right=0;pointerEvents=1;" vertex="1" parent="zdCaSSds6zG_SUBaGin_-240">
          <mxGeometry x="585" width="45" height="40" as="geometry" />
        </mxCell>
        <mxCell id="zdCaSSds6zG_SUBaGin_-255" value="" style="shape=partialRectangle;html=1;whiteSpace=wrap;connectable=0;overflow=hidden;fillColor=none;top=0;left=0;bottom=0;right=0;pointerEvents=1;" vertex="1" parent="zdCaSSds6zG_SUBaGin_-240">
          <mxGeometry x="630" width="45" height="40" as="geometry" />
        </mxCell>
        <mxCell id="zdCaSSds6zG_SUBaGin_-256" value="" style="shape=partialRectangle;html=1;whiteSpace=wrap;connectable=0;overflow=hidden;fillColor=none;top=0;left=0;bottom=0;right=0;pointerEvents=1;" vertex="1" parent="zdCaSSds6zG_SUBaGin_-240">
          <mxGeometry x="675" width="45" height="40" as="geometry" />
        </mxCell>
        <mxCell id="zdCaSSds6zG_SUBaGin_-257" value="" style="shape=partialRectangle;html=1;whiteSpace=wrap;connectable=0;overflow=hidden;fillColor=none;top=0;left=0;bottom=0;right=0;pointerEvents=1;" vertex="1" parent="zdCaSSds6zG_SUBaGin_-240">
          <mxGeometry x="720" width="45" height="40" as="geometry" />
        </mxCell>
        <mxCell id="zdCaSSds6zG_SUBaGin_-258" value="" style="shape=partialRectangle;html=1;whiteSpace=wrap;connectable=0;overflow=hidden;fillColor=none;top=0;left=0;bottom=0;right=0;pointerEvents=1;" vertex="1" parent="zdCaSSds6zG_SUBaGin_-240">
          <mxGeometry x="765" width="45" height="40" as="geometry" />
        </mxCell>
        <mxCell id="zdCaSSds6zG_SUBaGin_-259" value="" style="shape=partialRectangle;html=1;whiteSpace=wrap;connectable=0;overflow=hidden;fillColor=none;top=0;left=0;bottom=0;right=0;pointerEvents=1;" vertex="1" parent="zdCaSSds6zG_SUBaGin_-240">
          <mxGeometry x="810" width="45" height="40" as="geometry" />
        </mxCell>
        <mxCell id="zdCaSSds6zG_SUBaGin_-260" value="" style="shape=partialRectangle;html=1;whiteSpace=wrap;connectable=0;overflow=hidden;fillColor=none;top=0;left=0;bottom=0;right=0;pointerEvents=1;" vertex="1" parent="zdCaSSds6zG_SUBaGin_-240">
          <mxGeometry x="855" width="45" height="40" as="geometry" />
        </mxCell>
        <mxCell id="zdCaSSds6zG_SUBaGin_-261" value="" style="shape=table;startSize=0;container=1;collapsible=0;childLayout=tableLayout;fillColor=#D5E8D4;" vertex="1" parent="1">
          <mxGeometry x="-210" y="270" width="900" height="40" as="geometry" />
        </mxCell>
        <mxCell id="zdCaSSds6zG_SUBaGin_-262" value="" style="shape=partialRectangle;collapsible=0;dropTarget=0;pointerEvents=0;fillColor=none;top=0;left=0;bottom=0;right=0;points=[[0,0.5],[1,0.5]];portConstraint=eastwest;" vertex="1" parent="zdCaSSds6zG_SUBaGin_-261">
          <mxGeometry width="900" height="40" as="geometry" />
        </mxCell>
        <mxCell id="zdCaSSds6zG_SUBaGin_-263" value="" style="shape=partialRectangle;html=1;whiteSpace=wrap;connectable=0;overflow=hidden;fillColor=none;top=0;left=0;bottom=0;right=0;pointerEvents=1;" vertex="1" parent="zdCaSSds6zG_SUBaGin_-262">
          <mxGeometry width="45" height="40" as="geometry" />
        </mxCell>
        <mxCell id="zdCaSSds6zG_SUBaGin_-264" value="" style="shape=partialRectangle;html=1;whiteSpace=wrap;connectable=0;overflow=hidden;fillColor=none;top=0;left=0;bottom=0;right=0;pointerEvents=1;" vertex="1" parent="zdCaSSds6zG_SUBaGin_-262">
          <mxGeometry x="45" width="45" height="40" as="geometry" />
        </mxCell>
        <mxCell id="zdCaSSds6zG_SUBaGin_-265" value="" style="shape=partialRectangle;html=1;whiteSpace=wrap;connectable=0;overflow=hidden;fillColor=none;top=0;left=0;bottom=0;right=0;pointerEvents=1;" vertex="1" parent="zdCaSSds6zG_SUBaGin_-262">
          <mxGeometry x="90" width="45" height="40" as="geometry" />
        </mxCell>
        <mxCell id="zdCaSSds6zG_SUBaGin_-266" value="" style="shape=partialRectangle;html=1;whiteSpace=wrap;connectable=0;overflow=hidden;fillColor=none;top=0;left=0;bottom=0;right=0;pointerEvents=1;" vertex="1" parent="zdCaSSds6zG_SUBaGin_-262">
          <mxGeometry x="135" width="45" height="40" as="geometry" />
        </mxCell>
        <mxCell id="zdCaSSds6zG_SUBaGin_-267" value="" style="shape=partialRectangle;html=1;whiteSpace=wrap;connectable=0;overflow=hidden;fillColor=none;top=0;left=0;bottom=0;right=0;pointerEvents=1;" vertex="1" parent="zdCaSSds6zG_SUBaGin_-262">
          <mxGeometry x="180" width="45" height="40" as="geometry" />
        </mxCell>
        <mxCell id="zdCaSSds6zG_SUBaGin_-268" value="" style="shape=partialRectangle;html=1;whiteSpace=wrap;connectable=0;overflow=hidden;fillColor=none;top=0;left=0;bottom=0;right=0;pointerEvents=1;" vertex="1" parent="zdCaSSds6zG_SUBaGin_-262">
          <mxGeometry x="225" width="45" height="40" as="geometry" />
        </mxCell>
        <mxCell id="zdCaSSds6zG_SUBaGin_-269" value="" style="shape=partialRectangle;html=1;whiteSpace=wrap;connectable=0;overflow=hidden;fillColor=none;top=0;left=0;bottom=0;right=0;pointerEvents=1;" vertex="1" parent="zdCaSSds6zG_SUBaGin_-262">
          <mxGeometry x="270" width="45" height="40" as="geometry" />
        </mxCell>
        <mxCell id="zdCaSSds6zG_SUBaGin_-270" value="" style="shape=partialRectangle;html=1;whiteSpace=wrap;connectable=0;overflow=hidden;fillColor=none;top=0;left=0;bottom=0;right=0;pointerEvents=1;" vertex="1" parent="zdCaSSds6zG_SUBaGin_-262">
          <mxGeometry x="315" width="45" height="40" as="geometry" />
        </mxCell>
        <mxCell id="zdCaSSds6zG_SUBaGin_-271" value="" style="shape=partialRectangle;html=1;whiteSpace=wrap;connectable=0;overflow=hidden;fillColor=none;top=0;left=0;bottom=0;right=0;pointerEvents=1;" vertex="1" parent="zdCaSSds6zG_SUBaGin_-262">
          <mxGeometry x="360" width="45" height="40" as="geometry" />
        </mxCell>
        <mxCell id="zdCaSSds6zG_SUBaGin_-272" value="" style="shape=partialRectangle;html=1;whiteSpace=wrap;connectable=0;overflow=hidden;fillColor=none;top=0;left=0;bottom=0;right=0;pointerEvents=1;" vertex="1" parent="zdCaSSds6zG_SUBaGin_-262">
          <mxGeometry x="405" width="45" height="40" as="geometry" />
        </mxCell>
        <mxCell id="zdCaSSds6zG_SUBaGin_-273" value="" style="shape=partialRectangle;html=1;whiteSpace=wrap;connectable=0;overflow=hidden;fillColor=none;top=0;left=0;bottom=0;right=0;pointerEvents=1;" vertex="1" parent="zdCaSSds6zG_SUBaGin_-262">
          <mxGeometry x="450" width="45" height="40" as="geometry" />
        </mxCell>
        <mxCell id="zdCaSSds6zG_SUBaGin_-274" value="" style="shape=partialRectangle;html=1;whiteSpace=wrap;connectable=0;overflow=hidden;fillColor=none;top=0;left=0;bottom=0;right=0;pointerEvents=1;" vertex="1" parent="zdCaSSds6zG_SUBaGin_-262">
          <mxGeometry x="495" width="45" height="40" as="geometry" />
        </mxCell>
        <mxCell id="zdCaSSds6zG_SUBaGin_-275" value="" style="shape=partialRectangle;html=1;whiteSpace=wrap;connectable=0;overflow=hidden;fillColor=none;top=0;left=0;bottom=0;right=0;pointerEvents=1;" vertex="1" parent="zdCaSSds6zG_SUBaGin_-262">
          <mxGeometry x="540" width="45" height="40" as="geometry" />
        </mxCell>
        <mxCell id="zdCaSSds6zG_SUBaGin_-276" value="" style="shape=partialRectangle;html=1;whiteSpace=wrap;connectable=0;overflow=hidden;fillColor=none;top=0;left=0;bottom=0;right=0;pointerEvents=1;" vertex="1" parent="zdCaSSds6zG_SUBaGin_-262">
          <mxGeometry x="585" width="45" height="40" as="geometry" />
        </mxCell>
        <mxCell id="zdCaSSds6zG_SUBaGin_-277" value="" style="shape=partialRectangle;html=1;whiteSpace=wrap;connectable=0;overflow=hidden;fillColor=none;top=0;left=0;bottom=0;right=0;pointerEvents=1;" vertex="1" parent="zdCaSSds6zG_SUBaGin_-262">
          <mxGeometry x="630" width="45" height="40" as="geometry" />
        </mxCell>
        <mxCell id="zdCaSSds6zG_SUBaGin_-278" value="" style="shape=partialRectangle;html=1;whiteSpace=wrap;connectable=0;overflow=hidden;fillColor=none;top=0;left=0;bottom=0;right=0;pointerEvents=1;" vertex="1" parent="zdCaSSds6zG_SUBaGin_-262">
          <mxGeometry x="675" width="45" height="40" as="geometry" />
        </mxCell>
        <mxCell id="zdCaSSds6zG_SUBaGin_-279" value="" style="shape=partialRectangle;html=1;whiteSpace=wrap;connectable=0;overflow=hidden;fillColor=none;top=0;left=0;bottom=0;right=0;pointerEvents=1;" vertex="1" parent="zdCaSSds6zG_SUBaGin_-262">
          <mxGeometry x="720" width="45" height="40" as="geometry" />
        </mxCell>
        <mxCell id="zdCaSSds6zG_SUBaGin_-280" value="" style="shape=partialRectangle;html=1;whiteSpace=wrap;connectable=0;overflow=hidden;fillColor=none;top=0;left=0;bottom=0;right=0;pointerEvents=1;" vertex="1" parent="zdCaSSds6zG_SUBaGin_-262">
          <mxGeometry x="765" width="45" height="40" as="geometry" />
        </mxCell>
        <mxCell id="zdCaSSds6zG_SUBaGin_-281" value="" style="shape=partialRectangle;html=1;whiteSpace=wrap;connectable=0;overflow=hidden;fillColor=none;top=0;left=0;bottom=0;right=0;pointerEvents=1;" vertex="1" parent="zdCaSSds6zG_SUBaGin_-262">
          <mxGeometry x="810" width="45" height="40" as="geometry" />
        </mxCell>
        <mxCell id="zdCaSSds6zG_SUBaGin_-282" value="" style="shape=partialRectangle;html=1;whiteSpace=wrap;connectable=0;overflow=hidden;fillColor=none;top=0;left=0;bottom=0;right=0;pointerEvents=1;" vertex="1" parent="zdCaSSds6zG_SUBaGin_-262">
          <mxGeometry x="855" width="45" height="40" as="geometry" />
        </mxCell>
        <mxCell id="zdCaSSds6zG_SUBaGin_-283" value="" style="shape=table;startSize=0;container=1;collapsible=0;childLayout=tableLayout;fillColor=#FF8000;" vertex="1" parent="1">
          <mxGeometry x="150" y="270" width="45" height="40" as="geometry" />
        </mxCell>
        <mxCell id="zdCaSSds6zG_SUBaGin_-284" value="" style="shape=partialRectangle;collapsible=0;dropTarget=0;pointerEvents=0;fillColor=none;top=0;left=0;bottom=0;right=0;points=[[0,0.5],[1,0.5]];portConstraint=eastwest;" vertex="1" parent="zdCaSSds6zG_SUBaGin_-283">
          <mxGeometry width="45" height="40" as="geometry" />
        </mxCell>
        <mxCell id="zdCaSSds6zG_SUBaGin_-285" value="" style="shape=partialRectangle;html=1;whiteSpace=wrap;connectable=0;overflow=hidden;fillColor=none;top=0;left=0;bottom=0;right=0;pointerEvents=1;" vertex="1" parent="zdCaSSds6zG_SUBaGin_-284">
          <mxGeometry width="45" height="40" as="geometry" />
        </mxCell>
        <mxCell id="zdCaSSds6zG_SUBaGin_-286" value="" style="shape=table;startSize=0;container=1;collapsible=0;childLayout=tableLayout;fillColor=#D5E8D4;" vertex="1" parent="1">
          <mxGeometry x="-210" y="430" width="900" height="40" as="geometry" />
        </mxCell>
        <mxCell id="zdCaSSds6zG_SUBaGin_-287" value="" style="shape=partialRectangle;collapsible=0;dropTarget=0;pointerEvents=0;fillColor=none;top=0;left=0;bottom=0;right=0;points=[[0,0.5],[1,0.5]];portConstraint=eastwest;" vertex="1" parent="zdCaSSds6zG_SUBaGin_-286">
          <mxGeometry width="900" height="40" as="geometry" />
        </mxCell>
        <mxCell id="zdCaSSds6zG_SUBaGin_-288" value="" style="shape=partialRectangle;html=1;whiteSpace=wrap;connectable=0;overflow=hidden;fillColor=none;top=0;left=0;bottom=0;right=0;pointerEvents=1;" vertex="1" parent="zdCaSSds6zG_SUBaGin_-287">
          <mxGeometry width="45" height="40" as="geometry" />
        </mxCell>
        <mxCell id="zdCaSSds6zG_SUBaGin_-289" value="" style="shape=partialRectangle;html=1;whiteSpace=wrap;connectable=0;overflow=hidden;fillColor=none;top=0;left=0;bottom=0;right=0;pointerEvents=1;" vertex="1" parent="zdCaSSds6zG_SUBaGin_-287">
          <mxGeometry x="45" width="45" height="40" as="geometry" />
        </mxCell>
        <mxCell id="zdCaSSds6zG_SUBaGin_-290" value="" style="shape=partialRectangle;html=1;whiteSpace=wrap;connectable=0;overflow=hidden;fillColor=none;top=0;left=0;bottom=0;right=0;pointerEvents=1;" vertex="1" parent="zdCaSSds6zG_SUBaGin_-287">
          <mxGeometry x="90" width="45" height="40" as="geometry" />
        </mxCell>
        <mxCell id="zdCaSSds6zG_SUBaGin_-291" value="" style="shape=partialRectangle;html=1;whiteSpace=wrap;connectable=0;overflow=hidden;fillColor=none;top=0;left=0;bottom=0;right=0;pointerEvents=1;" vertex="1" parent="zdCaSSds6zG_SUBaGin_-287">
          <mxGeometry x="135" width="45" height="40" as="geometry" />
        </mxCell>
        <mxCell id="zdCaSSds6zG_SUBaGin_-292" value="" style="shape=partialRectangle;html=1;whiteSpace=wrap;connectable=0;overflow=hidden;fillColor=none;top=0;left=0;bottom=0;right=0;pointerEvents=1;" vertex="1" parent="zdCaSSds6zG_SUBaGin_-287">
          <mxGeometry x="180" width="45" height="40" as="geometry" />
        </mxCell>
        <mxCell id="zdCaSSds6zG_SUBaGin_-293" value="" style="shape=partialRectangle;html=1;whiteSpace=wrap;connectable=0;overflow=hidden;fillColor=none;top=0;left=0;bottom=0;right=0;pointerEvents=1;" vertex="1" parent="zdCaSSds6zG_SUBaGin_-287">
          <mxGeometry x="225" width="45" height="40" as="geometry" />
        </mxCell>
        <mxCell id="zdCaSSds6zG_SUBaGin_-294" value="" style="shape=partialRectangle;html=1;whiteSpace=wrap;connectable=0;overflow=hidden;fillColor=none;top=0;left=0;bottom=0;right=0;pointerEvents=1;" vertex="1" parent="zdCaSSds6zG_SUBaGin_-287">
          <mxGeometry x="270" width="45" height="40" as="geometry" />
        </mxCell>
        <mxCell id="zdCaSSds6zG_SUBaGin_-295" value="" style="shape=partialRectangle;html=1;whiteSpace=wrap;connectable=0;overflow=hidden;fillColor=none;top=0;left=0;bottom=0;right=0;pointerEvents=1;" vertex="1" parent="zdCaSSds6zG_SUBaGin_-287">
          <mxGeometry x="315" width="45" height="40" as="geometry" />
        </mxCell>
        <mxCell id="zdCaSSds6zG_SUBaGin_-296" value="" style="shape=partialRectangle;html=1;whiteSpace=wrap;connectable=0;overflow=hidden;fillColor=none;top=0;left=0;bottom=0;right=0;pointerEvents=1;" vertex="1" parent="zdCaSSds6zG_SUBaGin_-287">
          <mxGeometry x="360" width="45" height="40" as="geometry" />
        </mxCell>
        <mxCell id="zdCaSSds6zG_SUBaGin_-297" value="" style="shape=partialRectangle;html=1;whiteSpace=wrap;connectable=0;overflow=hidden;fillColor=none;top=0;left=0;bottom=0;right=0;pointerEvents=1;" vertex="1" parent="zdCaSSds6zG_SUBaGin_-287">
          <mxGeometry x="405" width="45" height="40" as="geometry" />
        </mxCell>
        <mxCell id="zdCaSSds6zG_SUBaGin_-298" value="" style="shape=partialRectangle;html=1;whiteSpace=wrap;connectable=0;overflow=hidden;fillColor=none;top=0;left=0;bottom=0;right=0;pointerEvents=1;" vertex="1" parent="zdCaSSds6zG_SUBaGin_-287">
          <mxGeometry x="450" width="45" height="40" as="geometry" />
        </mxCell>
        <mxCell id="zdCaSSds6zG_SUBaGin_-299" value="" style="shape=partialRectangle;html=1;whiteSpace=wrap;connectable=0;overflow=hidden;fillColor=none;top=0;left=0;bottom=0;right=0;pointerEvents=1;" vertex="1" parent="zdCaSSds6zG_SUBaGin_-287">
          <mxGeometry x="495" width="45" height="40" as="geometry" />
        </mxCell>
        <mxCell id="zdCaSSds6zG_SUBaGin_-300" value="" style="shape=partialRectangle;html=1;whiteSpace=wrap;connectable=0;overflow=hidden;fillColor=none;top=0;left=0;bottom=0;right=0;pointerEvents=1;" vertex="1" parent="zdCaSSds6zG_SUBaGin_-287">
          <mxGeometry x="540" width="45" height="40" as="geometry" />
        </mxCell>
        <mxCell id="zdCaSSds6zG_SUBaGin_-301" value="" style="shape=partialRectangle;html=1;whiteSpace=wrap;connectable=0;overflow=hidden;fillColor=none;top=0;left=0;bottom=0;right=0;pointerEvents=1;" vertex="1" parent="zdCaSSds6zG_SUBaGin_-287">
          <mxGeometry x="585" width="45" height="40" as="geometry" />
        </mxCell>
        <mxCell id="zdCaSSds6zG_SUBaGin_-302" value="" style="shape=partialRectangle;html=1;whiteSpace=wrap;connectable=0;overflow=hidden;fillColor=none;top=0;left=0;bottom=0;right=0;pointerEvents=1;" vertex="1" parent="zdCaSSds6zG_SUBaGin_-287">
          <mxGeometry x="630" width="45" height="40" as="geometry" />
        </mxCell>
        <mxCell id="zdCaSSds6zG_SUBaGin_-303" value="" style="shape=partialRectangle;html=1;whiteSpace=wrap;connectable=0;overflow=hidden;fillColor=none;top=0;left=0;bottom=0;right=0;pointerEvents=1;" vertex="1" parent="zdCaSSds6zG_SUBaGin_-287">
          <mxGeometry x="675" width="45" height="40" as="geometry" />
        </mxCell>
        <mxCell id="zdCaSSds6zG_SUBaGin_-304" value="" style="shape=partialRectangle;html=1;whiteSpace=wrap;connectable=0;overflow=hidden;fillColor=none;top=0;left=0;bottom=0;right=0;pointerEvents=1;" vertex="1" parent="zdCaSSds6zG_SUBaGin_-287">
          <mxGeometry x="720" width="45" height="40" as="geometry" />
        </mxCell>
        <mxCell id="zdCaSSds6zG_SUBaGin_-305" value="" style="shape=partialRectangle;html=1;whiteSpace=wrap;connectable=0;overflow=hidden;fillColor=none;top=0;left=0;bottom=0;right=0;pointerEvents=1;" vertex="1" parent="zdCaSSds6zG_SUBaGin_-287">
          <mxGeometry x="765" width="45" height="40" as="geometry" />
        </mxCell>
        <mxCell id="zdCaSSds6zG_SUBaGin_-306" value="" style="shape=partialRectangle;html=1;whiteSpace=wrap;connectable=0;overflow=hidden;fillColor=none;top=0;left=0;bottom=0;right=0;pointerEvents=1;" vertex="1" parent="zdCaSSds6zG_SUBaGin_-287">
          <mxGeometry x="810" width="45" height="40" as="geometry" />
        </mxCell>
        <mxCell id="zdCaSSds6zG_SUBaGin_-307" value="" style="shape=partialRectangle;html=1;whiteSpace=wrap;connectable=0;overflow=hidden;fillColor=none;top=0;left=0;bottom=0;right=0;pointerEvents=1;" vertex="1" parent="zdCaSSds6zG_SUBaGin_-287">
          <mxGeometry x="855" width="45" height="40" as="geometry" />
        </mxCell>
        <mxCell id="zdCaSSds6zG_SUBaGin_-308" value="" style="shape=table;startSize=0;container=1;collapsible=0;childLayout=tableLayout;fillColor=#FF8000;" vertex="1" parent="1">
          <mxGeometry x="645" y="430" width="45" height="40" as="geometry" />
        </mxCell>
        <mxCell id="zdCaSSds6zG_SUBaGin_-309" value="" style="shape=partialRectangle;collapsible=0;dropTarget=0;pointerEvents=0;fillColor=none;top=0;left=0;bottom=0;right=0;points=[[0,0.5],[1,0.5]];portConstraint=eastwest;" vertex="1" parent="zdCaSSds6zG_SUBaGin_-308">
          <mxGeometry width="45" height="40" as="geometry" />
        </mxCell>
        <mxCell id="zdCaSSds6zG_SUBaGin_-310" value="" style="shape=partialRectangle;html=1;whiteSpace=wrap;connectable=0;overflow=hidden;fillColor=none;top=0;left=0;bottom=0;right=0;pointerEvents=1;" vertex="1" parent="zdCaSSds6zG_SUBaGin_-309">
          <mxGeometry width="45" height="40" as="geometry" />
        </mxCell>
        <mxCell id="zdCaSSds6zG_SUBaGin_-311" value="" style="shape=table;startSize=0;container=1;collapsible=0;childLayout=tableLayout;fillColor=#0000FF;" vertex="1" parent="1">
          <mxGeometry x="-210" y="520" width="900" height="40" as="geometry" />
        </mxCell>
        <mxCell id="zdCaSSds6zG_SUBaGin_-312" value="" style="shape=partialRectangle;collapsible=0;dropTarget=0;pointerEvents=0;fillColor=none;top=0;left=0;bottom=0;right=0;points=[[0,0.5],[1,0.5]];portConstraint=eastwest;" vertex="1" parent="zdCaSSds6zG_SUBaGin_-311">
          <mxGeometry width="900" height="40" as="geometry" />
        </mxCell>
        <mxCell id="zdCaSSds6zG_SUBaGin_-313" value="" style="shape=partialRectangle;html=1;whiteSpace=wrap;connectable=0;overflow=hidden;fillColor=none;top=0;left=0;bottom=0;right=0;pointerEvents=1;" vertex="1" parent="zdCaSSds6zG_SUBaGin_-312">
          <mxGeometry width="45" height="40" as="geometry" />
        </mxCell>
        <mxCell id="zdCaSSds6zG_SUBaGin_-314" value="" style="shape=partialRectangle;html=1;whiteSpace=wrap;connectable=0;overflow=hidden;fillColor=none;top=0;left=0;bottom=0;right=0;pointerEvents=1;" vertex="1" parent="zdCaSSds6zG_SUBaGin_-312">
          <mxGeometry x="45" width="20" height="40" as="geometry" />
        </mxCell>
        <mxCell id="zdCaSSds6zG_SUBaGin_-315" value="" style="shape=partialRectangle;html=1;whiteSpace=wrap;connectable=0;overflow=hidden;fillColor=none;top=0;left=0;bottom=0;right=0;pointerEvents=1;" vertex="1" parent="zdCaSSds6zG_SUBaGin_-312">
          <mxGeometry x="65" width="70" height="40" as="geometry" />
        </mxCell>
        <mxCell id="zdCaSSds6zG_SUBaGin_-316" value="" style="shape=partialRectangle;html=1;whiteSpace=wrap;connectable=0;overflow=hidden;fillColor=none;top=0;left=0;bottom=0;right=0;pointerEvents=1;" vertex="1" parent="zdCaSSds6zG_SUBaGin_-312">
          <mxGeometry x="135" width="45" height="40" as="geometry" />
        </mxCell>
        <mxCell id="zdCaSSds6zG_SUBaGin_-317" value="" style="shape=partialRectangle;html=1;whiteSpace=wrap;connectable=0;overflow=hidden;fillColor=none;top=0;left=0;bottom=0;right=0;pointerEvents=1;" vertex="1" parent="zdCaSSds6zG_SUBaGin_-312">
          <mxGeometry x="180" width="45" height="40" as="geometry" />
        </mxCell>
        <mxCell id="zdCaSSds6zG_SUBaGin_-318" value="" style="shape=partialRectangle;html=1;whiteSpace=wrap;connectable=0;overflow=hidden;fillColor=none;top=0;left=0;bottom=0;right=0;pointerEvents=1;" vertex="1" parent="zdCaSSds6zG_SUBaGin_-312">
          <mxGeometry x="225" width="45" height="40" as="geometry" />
        </mxCell>
        <mxCell id="zdCaSSds6zG_SUBaGin_-319" value="" style="shape=partialRectangle;html=1;whiteSpace=wrap;connectable=0;overflow=hidden;fillColor=none;top=0;left=0;bottom=0;right=0;pointerEvents=1;" vertex="1" parent="zdCaSSds6zG_SUBaGin_-312">
          <mxGeometry x="270" width="45" height="40" as="geometry" />
        </mxCell>
        <mxCell id="zdCaSSds6zG_SUBaGin_-320" value="" style="shape=partialRectangle;html=1;whiteSpace=wrap;connectable=0;overflow=hidden;fillColor=none;top=0;left=0;bottom=0;right=0;pointerEvents=1;" vertex="1" parent="zdCaSSds6zG_SUBaGin_-312">
          <mxGeometry x="315" width="45" height="40" as="geometry" />
        </mxCell>
        <mxCell id="zdCaSSds6zG_SUBaGin_-321" value="" style="shape=partialRectangle;html=1;whiteSpace=wrap;connectable=0;overflow=hidden;fillColor=none;top=0;left=0;bottom=0;right=0;pointerEvents=1;" vertex="1" parent="zdCaSSds6zG_SUBaGin_-312">
          <mxGeometry x="360" width="45" height="40" as="geometry" />
        </mxCell>
        <mxCell id="zdCaSSds6zG_SUBaGin_-322" value="" style="shape=partialRectangle;html=1;whiteSpace=wrap;connectable=0;overflow=hidden;fillColor=none;top=0;left=0;bottom=0;right=0;pointerEvents=1;" vertex="1" parent="zdCaSSds6zG_SUBaGin_-312">
          <mxGeometry x="405" width="45" height="40" as="geometry" />
        </mxCell>
        <mxCell id="zdCaSSds6zG_SUBaGin_-323" value="" style="shape=partialRectangle;html=1;whiteSpace=wrap;connectable=0;overflow=hidden;fillColor=none;top=0;left=0;bottom=0;right=0;pointerEvents=1;" vertex="1" parent="zdCaSSds6zG_SUBaGin_-312">
          <mxGeometry x="450" width="45" height="40" as="geometry" />
        </mxCell>
        <mxCell id="zdCaSSds6zG_SUBaGin_-324" value="" style="shape=partialRectangle;html=1;whiteSpace=wrap;connectable=0;overflow=hidden;fillColor=none;top=0;left=0;bottom=0;right=0;pointerEvents=1;" vertex="1" parent="zdCaSSds6zG_SUBaGin_-312">
          <mxGeometry x="495" width="45" height="40" as="geometry" />
        </mxCell>
        <mxCell id="zdCaSSds6zG_SUBaGin_-325" value="" style="shape=partialRectangle;html=1;whiteSpace=wrap;connectable=0;overflow=hidden;fillColor=none;top=0;left=0;bottom=0;right=0;pointerEvents=1;" vertex="1" parent="zdCaSSds6zG_SUBaGin_-312">
          <mxGeometry x="540" width="45" height="40" as="geometry" />
        </mxCell>
        <mxCell id="zdCaSSds6zG_SUBaGin_-326" value="" style="shape=partialRectangle;html=1;whiteSpace=wrap;connectable=0;overflow=hidden;fillColor=none;top=0;left=0;bottom=0;right=0;pointerEvents=1;" vertex="1" parent="zdCaSSds6zG_SUBaGin_-312">
          <mxGeometry x="585" width="45" height="40" as="geometry" />
        </mxCell>
        <mxCell id="zdCaSSds6zG_SUBaGin_-327" value="" style="shape=partialRectangle;html=1;whiteSpace=wrap;connectable=0;overflow=hidden;fillColor=none;top=0;left=0;bottom=0;right=0;pointerEvents=1;" vertex="1" parent="zdCaSSds6zG_SUBaGin_-312">
          <mxGeometry x="630" width="45" height="40" as="geometry" />
        </mxCell>
        <mxCell id="zdCaSSds6zG_SUBaGin_-328" value="" style="shape=partialRectangle;html=1;whiteSpace=wrap;connectable=0;overflow=hidden;fillColor=none;top=0;left=0;bottom=0;right=0;pointerEvents=1;" vertex="1" parent="zdCaSSds6zG_SUBaGin_-312">
          <mxGeometry x="675" width="45" height="40" as="geometry" />
        </mxCell>
        <mxCell id="zdCaSSds6zG_SUBaGin_-329" value="" style="shape=partialRectangle;html=1;whiteSpace=wrap;connectable=0;overflow=hidden;fillColor=none;top=0;left=0;bottom=0;right=0;pointerEvents=1;" vertex="1" parent="zdCaSSds6zG_SUBaGin_-312">
          <mxGeometry x="720" width="45" height="40" as="geometry" />
        </mxCell>
        <mxCell id="zdCaSSds6zG_SUBaGin_-330" value="" style="shape=partialRectangle;html=1;whiteSpace=wrap;connectable=0;overflow=hidden;fillColor=none;top=0;left=0;bottom=0;right=0;pointerEvents=1;" vertex="1" parent="zdCaSSds6zG_SUBaGin_-312">
          <mxGeometry x="765" width="45" height="40" as="geometry" />
        </mxCell>
        <mxCell id="zdCaSSds6zG_SUBaGin_-331" value="" style="shape=partialRectangle;html=1;whiteSpace=wrap;connectable=0;overflow=hidden;fillColor=none;top=0;left=0;bottom=0;right=0;pointerEvents=1;" vertex="1" parent="zdCaSSds6zG_SUBaGin_-312">
          <mxGeometry x="810" width="45" height="40" as="geometry" />
        </mxCell>
        <mxCell id="zdCaSSds6zG_SUBaGin_-332" value="" style="shape=partialRectangle;html=1;whiteSpace=wrap;connectable=0;overflow=hidden;fillColor=none;top=0;left=0;bottom=0;right=0;pointerEvents=1;" vertex="1" parent="zdCaSSds6zG_SUBaGin_-312">
          <mxGeometry x="855" width="45" height="40" as="geometry" />
        </mxCell>
        <mxCell id="zdCaSSds6zG_SUBaGin_-333" value="" style="shape=table;startSize=0;container=1;collapsible=0;childLayout=tableLayout;fillColor=#0000FF;" vertex="1" parent="1">
          <mxGeometry x="-200" y="530" width="900" height="40" as="geometry" />
        </mxCell>
        <mxCell id="zdCaSSds6zG_SUBaGin_-334" value="" style="shape=partialRectangle;collapsible=0;dropTarget=0;pointerEvents=0;fillColor=none;top=0;left=0;bottom=0;right=0;points=[[0,0.5],[1,0.5]];portConstraint=eastwest;" vertex="1" parent="zdCaSSds6zG_SUBaGin_-333">
          <mxGeometry width="900" height="40" as="geometry" />
        </mxCell>
        <mxCell id="zdCaSSds6zG_SUBaGin_-335" value="" style="shape=partialRectangle;html=1;whiteSpace=wrap;connectable=0;overflow=hidden;fillColor=none;top=0;left=0;bottom=0;right=0;pointerEvents=1;" vertex="1" parent="zdCaSSds6zG_SUBaGin_-334">
          <mxGeometry width="45" height="40" as="geometry" />
        </mxCell>
        <mxCell id="zdCaSSds6zG_SUBaGin_-336" value="" style="shape=partialRectangle;html=1;whiteSpace=wrap;connectable=0;overflow=hidden;fillColor=none;top=0;left=0;bottom=0;right=0;pointerEvents=1;" vertex="1" parent="zdCaSSds6zG_SUBaGin_-334">
          <mxGeometry x="45" width="45" height="40" as="geometry" />
        </mxCell>
        <mxCell id="zdCaSSds6zG_SUBaGin_-337" value="" style="shape=partialRectangle;html=1;whiteSpace=wrap;connectable=0;overflow=hidden;fillColor=none;top=0;left=0;bottom=0;right=0;pointerEvents=1;" vertex="1" parent="zdCaSSds6zG_SUBaGin_-334">
          <mxGeometry x="90" width="45" height="40" as="geometry" />
        </mxCell>
        <mxCell id="zdCaSSds6zG_SUBaGin_-338" value="" style="shape=partialRectangle;html=1;whiteSpace=wrap;connectable=0;overflow=hidden;fillColor=none;top=0;left=0;bottom=0;right=0;pointerEvents=1;" vertex="1" parent="zdCaSSds6zG_SUBaGin_-334">
          <mxGeometry x="135" width="45" height="40" as="geometry" />
        </mxCell>
        <mxCell id="zdCaSSds6zG_SUBaGin_-339" value="" style="shape=partialRectangle;html=1;whiteSpace=wrap;connectable=0;overflow=hidden;fillColor=none;top=0;left=0;bottom=0;right=0;pointerEvents=1;" vertex="1" parent="zdCaSSds6zG_SUBaGin_-334">
          <mxGeometry x="180" width="45" height="40" as="geometry" />
        </mxCell>
        <mxCell id="zdCaSSds6zG_SUBaGin_-340" value="" style="shape=partialRectangle;html=1;whiteSpace=wrap;connectable=0;overflow=hidden;fillColor=none;top=0;left=0;bottom=0;right=0;pointerEvents=1;" vertex="1" parent="zdCaSSds6zG_SUBaGin_-334">
          <mxGeometry x="225" width="45" height="40" as="geometry" />
        </mxCell>
        <mxCell id="zdCaSSds6zG_SUBaGin_-341" value="" style="shape=partialRectangle;html=1;whiteSpace=wrap;connectable=0;overflow=hidden;fillColor=none;top=0;left=0;bottom=0;right=0;pointerEvents=1;" vertex="1" parent="zdCaSSds6zG_SUBaGin_-334">
          <mxGeometry x="270" width="45" height="40" as="geometry" />
        </mxCell>
        <mxCell id="zdCaSSds6zG_SUBaGin_-342" value="" style="shape=partialRectangle;html=1;whiteSpace=wrap;connectable=0;overflow=hidden;fillColor=none;top=0;left=0;bottom=0;right=0;pointerEvents=1;" vertex="1" parent="zdCaSSds6zG_SUBaGin_-334">
          <mxGeometry x="315" width="45" height="40" as="geometry" />
        </mxCell>
        <mxCell id="zdCaSSds6zG_SUBaGin_-343" value="" style="shape=partialRectangle;html=1;whiteSpace=wrap;connectable=0;overflow=hidden;fillColor=none;top=0;left=0;bottom=0;right=0;pointerEvents=1;" vertex="1" parent="zdCaSSds6zG_SUBaGin_-334">
          <mxGeometry x="360" width="45" height="40" as="geometry" />
        </mxCell>
        <mxCell id="zdCaSSds6zG_SUBaGin_-344" value="" style="shape=partialRectangle;html=1;whiteSpace=wrap;connectable=0;overflow=hidden;fillColor=none;top=0;left=0;bottom=0;right=0;pointerEvents=1;" vertex="1" parent="zdCaSSds6zG_SUBaGin_-334">
          <mxGeometry x="405" width="45" height="40" as="geometry" />
        </mxCell>
        <mxCell id="zdCaSSds6zG_SUBaGin_-345" value="" style="shape=partialRectangle;html=1;whiteSpace=wrap;connectable=0;overflow=hidden;fillColor=none;top=0;left=0;bottom=0;right=0;pointerEvents=1;" vertex="1" parent="zdCaSSds6zG_SUBaGin_-334">
          <mxGeometry x="450" width="45" height="40" as="geometry" />
        </mxCell>
        <mxCell id="zdCaSSds6zG_SUBaGin_-346" value="" style="shape=partialRectangle;html=1;whiteSpace=wrap;connectable=0;overflow=hidden;fillColor=none;top=0;left=0;bottom=0;right=0;pointerEvents=1;" vertex="1" parent="zdCaSSds6zG_SUBaGin_-334">
          <mxGeometry x="495" width="45" height="40" as="geometry" />
        </mxCell>
        <mxCell id="zdCaSSds6zG_SUBaGin_-347" value="" style="shape=partialRectangle;html=1;whiteSpace=wrap;connectable=0;overflow=hidden;fillColor=none;top=0;left=0;bottom=0;right=0;pointerEvents=1;" vertex="1" parent="zdCaSSds6zG_SUBaGin_-334">
          <mxGeometry x="540" width="45" height="40" as="geometry" />
        </mxCell>
        <mxCell id="zdCaSSds6zG_SUBaGin_-348" value="" style="shape=partialRectangle;html=1;whiteSpace=wrap;connectable=0;overflow=hidden;fillColor=none;top=0;left=0;bottom=0;right=0;pointerEvents=1;" vertex="1" parent="zdCaSSds6zG_SUBaGin_-334">
          <mxGeometry x="585" width="45" height="40" as="geometry" />
        </mxCell>
        <mxCell id="zdCaSSds6zG_SUBaGin_-349" value="" style="shape=partialRectangle;html=1;whiteSpace=wrap;connectable=0;overflow=hidden;fillColor=none;top=0;left=0;bottom=0;right=0;pointerEvents=1;" vertex="1" parent="zdCaSSds6zG_SUBaGin_-334">
          <mxGeometry x="630" width="45" height="40" as="geometry" />
        </mxCell>
        <mxCell id="zdCaSSds6zG_SUBaGin_-350" value="" style="shape=partialRectangle;html=1;whiteSpace=wrap;connectable=0;overflow=hidden;fillColor=none;top=0;left=0;bottom=0;right=0;pointerEvents=1;" vertex="1" parent="zdCaSSds6zG_SUBaGin_-334">
          <mxGeometry x="675" width="45" height="40" as="geometry" />
        </mxCell>
        <mxCell id="zdCaSSds6zG_SUBaGin_-351" value="" style="shape=partialRectangle;html=1;whiteSpace=wrap;connectable=0;overflow=hidden;fillColor=none;top=0;left=0;bottom=0;right=0;pointerEvents=1;" vertex="1" parent="zdCaSSds6zG_SUBaGin_-334">
          <mxGeometry x="720" width="45" height="40" as="geometry" />
        </mxCell>
        <mxCell id="zdCaSSds6zG_SUBaGin_-352" value="" style="shape=partialRectangle;html=1;whiteSpace=wrap;connectable=0;overflow=hidden;fillColor=none;top=0;left=0;bottom=0;right=0;pointerEvents=1;" vertex="1" parent="zdCaSSds6zG_SUBaGin_-334">
          <mxGeometry x="765" width="45" height="40" as="geometry" />
        </mxCell>
        <mxCell id="zdCaSSds6zG_SUBaGin_-353" value="" style="shape=partialRectangle;html=1;whiteSpace=wrap;connectable=0;overflow=hidden;fillColor=none;top=0;left=0;bottom=0;right=0;pointerEvents=1;" vertex="1" parent="zdCaSSds6zG_SUBaGin_-334">
          <mxGeometry x="810" width="45" height="40" as="geometry" />
        </mxCell>
        <mxCell id="zdCaSSds6zG_SUBaGin_-354" value="" style="shape=partialRectangle;html=1;whiteSpace=wrap;connectable=0;overflow=hidden;fillColor=none;top=0;left=0;bottom=0;right=0;pointerEvents=1;" vertex="1" parent="zdCaSSds6zG_SUBaGin_-334">
          <mxGeometry x="855" width="45" height="40" as="geometry" />
        </mxCell>
        <mxCell id="zdCaSSds6zG_SUBaGin_-355" value="2 Output Feature Maps" style="text;html=1;resizable=0;autosize=1;align=center;verticalAlign=middle;points=[];fillColor=none;strokeColor=none;rounded=0;fontSize=24;" vertex="1" parent="1">
          <mxGeometry x="-480" y="530" width="260" height="30" as="geometry" />
        </mxCell>
        <mxCell id="zdCaSSds6zG_SUBaGin_-356" value="" style="endArrow=none;dashed=1;html=1;" edge="1" parent="1">
          <mxGeometry width="50" height="50" relative="1" as="geometry">
            <mxPoint x="150" y="260" as="sourcePoint" />
            <mxPoint x="150" y="170" as="targetPoint" />
          </mxGeometry>
        </mxCell>
        <mxCell id="zdCaSSds6zG_SUBaGin_-357" value="" style="endArrow=none;dashed=1;html=1;" edge="1" parent="1">
          <mxGeometry width="50" height="50" relative="1" as="geometry">
            <mxPoint x="150" y="420" as="sourcePoint" />
            <mxPoint x="150" y="330" as="targetPoint" />
          </mxGeometry>
        </mxCell>
        <mxCell id="zdCaSSds6zG_SUBaGin_-358" value="" style="shape=curlyBracket;whiteSpace=wrap;html=1;rounded=1;" vertex="1" parent="1">
          <mxGeometry x="-300" y="90" width="20" height="370" as="geometry" />
        </mxCell>
        <mxCell id="zdCaSSds6zG_SUBaGin_-359" value="Each kernel&lt;br&gt;sliding over each&lt;br&gt;value on &lt;br&gt;the 1D array" style="text;html=1;resizable=0;autosize=1;align=center;verticalAlign=middle;points=[];fillColor=none;strokeColor=none;rounded=0;fontSize=24;" vertex="1" parent="1">
          <mxGeometry x="-510" y="220" width="200" height="120" as="geometry" />
        </mxCell>
      </root>
    </mxGraphModel>
  </diagram>
</mxfile>
